<svg width="955" height="432" viewBox="0 0 955 432" fill="none" xmlns="http://www.w3.org/2000/svg">
<g clip-path="url(#clip0)">
<path d="M635.649 422.795C631.306 422.792 627.142 420.652 624.072 416.846C621.002 413.04 619.277 407.88 619.277 402.5C619.277 397.12 621.002 391.96 624.072 388.154C627.142 384.348 631.306 382.208 635.649 382.205H879C877.776 379.421 875.969 377.098 873.77 375.478C871.571 373.858 869.06 373.002 866.501 373H382.784C376.473 373.009 370.423 376.121 365.963 381.652C361.504 387.184 358.999 394.682 359 402.5C359.003 410.316 361.509 417.812 365.968 423.342C370.427 428.873 376.474 431.986 382.784 432H866.501C869.06 431.998 871.571 431.142 873.77 429.522C875.969 427.902 877.776 425.579 879 422.795L635.649 422.795Z" fill="#CCCCCC"/>
<path d="M879.666 393H648.334C647.98 392.999 647.641 392.841 647.391 392.559C647.14 392.278 647 391.897 647 391.5C647 391.103 647.14 390.722 647.391 390.441C647.641 390.159 647.98 390.001 648.334 390H879.666C880.02 390.001 880.359 390.159 880.609 390.441C880.86 390.722 881 391.103 881 391.5C881 391.897 880.86 392.278 880.609 392.559C880.359 392.841 880.02 392.999 879.666 393Z" fill="#CCCCCC"/>
<path d="M879.663 404H648.337C647.982 404 647.642 403.842 647.392 403.561C647.141 403.279 647 402.898 647 402.5C647 402.102 647.141 401.721 647.392 401.439C647.642 401.158 647.982 401 648.337 401H879.663C880.018 401 880.358 401.158 880.608 401.439C880.859 401.721 881 402.102 881 402.5C881 402.898 880.859 403.279 880.608 403.561C880.358 403.842 880.018 404 879.663 404Z" fill="#CCCCCC"/>
<path d="M879.666 415H648.334C647.98 414.999 647.641 414.841 647.391 414.559C647.14 414.278 647 413.897 647 413.5C647 413.103 647.14 412.722 647.391 412.441C647.641 412.159 647.98 412.001 648.334 412H879.666C880.02 412.001 880.359 412.159 880.609 412.441C880.86 412.722 881 413.103 881 413.5C881 413.897 880.86 414.278 880.609 414.559C880.359 414.841 880.02 414.999 879.666 415Z" fill="#CCCCCC"/>
<path d="M572.649 365.639C568.306 365.636 564.142 363.459 561.072 359.589C558.002 355.719 556.277 350.471 556.277 345C556.277 339.529 558.002 334.281 561.072 330.411C564.142 326.541 568.306 324.365 572.649 324.361H816C814.776 321.53 812.969 319.167 810.77 317.52C808.571 315.873 806.06 315.002 803.501 315H319.784C313.473 315.009 307.424 318.174 302.964 323.799C298.504 329.424 295.999 337.05 296 345C296.003 352.949 298.509 360.571 302.968 366.196C307.427 371.82 313.475 374.986 319.784 375H803.501C806.06 374.998 808.571 374.127 810.77 372.48C812.969 370.833 814.776 368.47 816 365.639L572.649 365.639Z" fill="#6A89C7"/>
<path d="M816.663 336H585.334C584.98 335.999 584.641 335.841 584.391 335.559C584.14 335.278 584 334.897 584 334.5C584 334.103 584.14 333.722 584.391 333.441C584.641 333.159 584.98 333.001 585.334 333H816.663C817.017 333 817.358 333.158 817.608 333.439C817.859 333.721 818 334.102 818 334.5C818 334.898 817.859 335.279 817.608 335.561C817.358 335.842 817.017 336 816.663 336Z" fill="#CCCCCC"/>
<path d="M816.663 347H585.337C584.983 347 584.642 346.789 584.392 346.414C584.141 346.039 584 345.53 584 345C584 344.47 584.141 343.961 584.392 343.586C584.642 343.211 584.983 343 585.337 343H816.663C817.017 343 817.358 343.211 817.608 343.586C817.859 343.961 818 344.47 818 345C818 345.53 817.859 346.039 817.608 346.414C817.358 346.789 817.017 347 816.663 347Z" fill="#CCCCCC"/>
<path d="M816.66 357H585.334C584.98 356.999 584.641 356.841 584.391 356.559C584.14 356.278 584 355.897 584 355.5C584 355.103 584.14 354.722 584.391 354.441C584.641 354.159 584.98 354.001 585.334 354H816.66C816.836 354 817.01 354.038 817.172 354.113C817.335 354.188 817.483 354.299 817.607 354.438C817.732 354.577 817.831 354.743 817.898 354.925C817.965 355.107 818 355.303 818 355.5C818 355.697 817.965 355.893 817.898 356.075C817.831 356.257 817.732 356.423 817.607 356.562C817.483 356.701 817.335 356.812 817.172 356.887C817.01 356.962 816.836 357 816.66 357Z" fill="#CCCCCC"/>
<path d="M520.945 305.795C516.785 305.792 512.797 303.652 509.857 299.846C506.917 296.04 505.265 290.88 505.265 285.5C505.265 280.12 506.917 274.96 509.857 271.154C512.797 267.38 516.785 265.209 520.945 265.205H754C752.828 262.421 751.098 260.098 748.991 258.478C746.885 256.858 744.481 256.002 742.03 256H278.778C272.734 256.009 266.94 259.121 262.669 264.652C258.398 270.184 255.999 277.682 256 285.5C256.003 293.316 258.403 300.812 262.673 306.342C266.943 311.873 272.735 314.986 278.778 315H742.03C744.481 314.998 746.885 314.142 748.991 312.522C751.098 310.902 752.828 308.579 754 305.795L520.945 305.795Z" fill="#CCCCCC"/>
<path d="M753.663 277H522.334C521.98 276.999 521.641 276.787 521.391 276.413C521.14 276.038 521 275.53 521 275C521 274.47 521.14 273.962 521.391 273.587C521.641 273.213 521.98 273.001 522.334 273H753.663C754.017 273 754.358 273.211 754.608 273.586C754.859 273.961 755 274.47 755 275C755 275.53 754.859 276.039 754.608 276.414C754.358 276.789 754.017 277 753.663 277Z" fill="#CCCCCC"/>
<path d="M753.663 287H522.337C522.162 287 521.988 286.961 521.825 286.886C521.663 286.81 521.516 286.7 521.392 286.561C521.267 286.421 521.169 286.256 521.102 286.074C521.035 285.892 521 285.697 521 285.5C521 285.303 521.035 285.108 521.102 284.926C521.169 284.744 521.267 284.579 521.392 284.439C521.516 284.3 521.663 284.19 521.825 284.114C521.988 284.039 522.162 284 522.337 284H753.663C753.838 284 754.012 284.039 754.175 284.114C754.337 284.19 754.484 284.3 754.608 284.439C754.733 284.579 754.831 284.744 754.898 284.926C754.965 285.108 755 285.303 755 285.5C755 285.697 754.965 285.892 754.898 286.074C754.831 286.256 754.733 286.421 754.608 286.561C754.484 286.7 754.337 286.81 754.175 286.886C754.012 286.961 753.838 287 753.663 287Z" fill="#CCCCCC"/>
<path d="M753.663 298H522.337C521.983 298 521.642 297.842 521.392 297.561C521.141 297.279 521 296.898 521 296.5C521 296.102 521.141 295.721 521.392 295.439C521.642 295.158 521.983 295 522.337 295H753.663C753.838 295 754.012 295.039 754.175 295.114C754.337 295.19 754.484 295.3 754.608 295.439C754.733 295.579 754.831 295.744 754.898 295.926C754.965 296.108 755 296.303 755 296.5C755 296.697 754.965 296.892 754.898 297.074C754.831 297.256 754.733 297.421 754.608 297.561C754.484 297.7 754.337 297.81 754.175 297.886C754.012 297.961 753.838 298 753.663 298Z" fill="#CCCCCC"/>
<path d="M715.398 179.653C713.671 179.65 712.009 179.048 710.749 177.969C709.49 176.889 708.726 175.413 708.613 173.838L707.603 159.743C707.485 158.096 708.087 156.475 709.278 155.234C710.469 153.994 712.15 153.236 713.952 153.129L834.833 145.896C836.739 145.782 838.65 146.012 840.458 146.573C842.266 147.134 843.936 148.015 845.371 149.165C846.807 150.315 847.98 151.713 848.825 153.277C849.669 154.842 850.168 156.543 850.293 158.284C850.418 160.025 850.166 161.771 849.552 163.423C848.938 165.074 847.974 166.6 846.715 167.911C845.456 169.223 843.926 170.295 842.214 171.066C840.501 171.838 838.639 172.293 836.734 172.407L715.853 179.639C715.701 179.648 715.549 179.652 715.398 179.653Z" fill="#E1D4A7"/>
<path d="M739.234 181.47C737.473 181.467 735.781 180.842 734.513 179.726C733.246 178.61 732.5 177.088 732.432 175.481L731.57 154.428C731.537 153.611 731.68 152.797 731.991 152.031C732.302 151.265 732.776 150.563 733.384 149.964C733.992 149.365 734.724 148.882 735.536 148.541C736.349 148.201 737.227 148.01 738.121 147.979L837.524 144.585C839.329 144.524 841.087 145.119 842.411 146.242C843.734 147.364 844.516 148.921 844.583 150.57L845.445 171.623C845.478 172.439 845.335 173.254 845.024 174.019C844.713 174.785 844.24 175.488 843.632 176.087C843.023 176.685 842.292 177.169 841.479 177.509C840.666 177.85 839.788 178.041 838.894 178.071L739.491 181.465C739.405 181.469 739.319 181.47 739.234 181.47Z" fill="#535173"/>
<path d="M855.718 375.543H840.256C838.451 375.541 836.72 374.885 835.443 373.718C834.167 372.552 833.449 370.971 833.447 369.322V251.59C833.449 249.941 834.167 248.36 835.443 247.194C836.72 246.027 838.451 245.371 840.256 245.369H855.718C857.524 245.371 859.255 246.027 860.531 247.194C861.808 248.36 862.526 249.941 862.528 251.59V369.322C862.526 370.971 861.808 372.552 860.531 373.718C859.255 374.885 857.524 375.541 855.718 375.543Z" fill="#535173"/>
<path d="M787.087 313.311L773.864 305.989C772.322 305.132 771.214 303.752 770.784 302.15C770.354 300.548 770.637 298.856 771.571 297.444L838.371 196.764C839.308 195.354 840.819 194.342 842.573 193.95C844.326 193.557 846.179 193.815 847.723 194.669L860.946 201.991C862.489 202.847 863.597 204.228 864.027 205.83C864.457 207.431 864.174 209.124 863.24 210.535L796.44 311.215C795.502 312.625 793.991 313.637 792.238 314.03C790.484 314.423 788.632 314.164 787.087 313.311Z" fill="#535173"/>
<path d="M832.234 122.504C861.742 122.504 885.662 100.651 885.662 73.694C885.662 46.737 861.742 24.8841 832.234 24.8841C802.727 24.8841 778.806 46.737 778.806 73.694C778.806 100.651 802.727 122.504 832.234 122.504Z" fill="#E1D4A7"/>
<path d="M803.314 90.3594C801.596 89.8435 800.018 88.9974 798.687 87.878C797.805 87.0788 797.125 86.1131 796.695 85.0486C796.265 83.9841 796.095 82.8465 796.196 81.7155C796.252 80.9098 796.511 80.1267 796.953 79.4275C797.395 78.7284 798.009 78.1321 798.745 77.6853C800.655 76.5656 803.211 76.5623 805.812 77.6098L805.714 58.5551L807.809 58.546L807.925 80.9468L806.311 80.0191C804.439 78.9451 801.765 78.1892 799.876 79.2965C799.409 79.5891 799.023 79.976 798.746 80.4274C798.47 80.8787 798.311 81.3822 798.282 81.8987C798.211 82.7411 798.34 83.5876 798.66 84.3804C798.979 85.1733 799.482 85.894 800.134 86.4934C802.448 88.5124 805.823 89.1437 809.672 89.708L809.34 91.5977C807.295 91.3502 805.278 90.9358 803.314 90.3594Z" fill="#535173"/>
<path d="M784.116 57.5924L783.842 59.4898L795.029 60.8395L795.303 58.9421L784.116 57.5924Z" fill="#535173"/>
<path d="M819.428 61.8517L819.154 63.7491L830.341 65.0989L830.615 63.2015L819.428 61.8517Z" fill="#535173"/>
<path d="M876.847 283.178H786.753C784.392 283.175 782.128 282.318 780.459 280.792C778.79 279.267 777.851 277.2 777.848 275.043L796.709 142.907C796.724 140.76 797.669 138.706 799.336 137.193C801.004 135.681 803.259 134.833 805.61 134.834H837.582C850.353 134.847 862.597 139.488 871.627 147.738C880.657 155.987 885.737 167.173 885.751 178.84V275.043C885.749 277.2 884.81 279.267 883.14 280.792C881.471 282.318 879.208 283.175 876.847 283.178Z" fill="#535173"/>
<path d="M954.36 231.111C954.916 232.199 955.117 233.411 954.937 234.601C954.757 235.79 954.205 236.907 953.346 237.817L943.238 248.506C942.653 249.124 941.941 249.631 941.142 249.998C940.343 250.365 939.472 250.584 938.581 250.643C937.689 250.703 936.793 250.601 935.944 250.344C935.095 250.087 934.31 249.68 933.633 249.146L841.967 176.795C840.522 175.655 839.336 174.266 838.479 172.707C837.621 171.148 837.108 169.45 836.969 167.71C836.829 165.97 837.067 164.222 837.667 162.566C838.268 160.91 839.219 159.378 840.468 158.058C841.716 156.738 843.237 155.655 844.944 154.872C846.65 154.089 848.509 153.62 850.413 153.494C852.318 153.367 854.232 153.584 856.044 154.133C857.857 154.682 859.534 155.551 860.978 156.692L952.645 229.043C953.37 229.614 953.955 230.319 954.36 231.111Z" fill="#E1D4A7"/>
<path d="M934.128 207.235C934.685 208.323 934.885 209.535 934.705 210.724C934.525 211.914 933.973 213.031 933.114 213.941L915.848 232.198C914.666 233.445 912.992 234.212 911.191 234.332C909.391 234.452 907.611 233.915 906.244 232.838L830.973 173.428C830.296 172.894 829.741 172.243 829.34 171.513C828.938 170.783 828.698 169.988 828.633 169.173C828.568 168.359 828.679 167.54 828.96 166.764C829.241 165.989 829.687 165.272 830.272 164.653L847.537 146.396C848.122 145.778 848.834 145.271 849.633 144.904C850.432 144.538 851.303 144.318 852.194 144.259C853.086 144.199 853.982 144.301 854.831 144.558C855.68 144.815 856.465 145.222 857.142 145.756L932.413 205.166C933.138 205.737 933.723 206.442 934.128 207.235Z" fill="#535173"/>
<path d="M833.234 44.7449C826.091 39.3454 816.544 44.4522 808.467 43.7274C800.74 43.0339 794.52 36.8213 792.825 30.1359C790.848 22.3363 795.134 14.4134 801.59 9.41702C808.662 3.94474 818.156 2.24421 827.203 3.07692C837.573 4.03129 847.126 8.27285 855.727 13.4545C864.026 18.2968 871.684 24.0001 878.547 30.4505C884.698 36.4238 889.952 43.5798 891.752 51.73C893.387 59.1369 892.428 67.3929 887.749 73.7728C885.266 77.0443 881.902 79.6759 877.981 81.4138C873.895 83.3355 869.524 84.7344 865.572 86.8956C859.596 90.1632 853.861 96.8231 855.895 103.615C856.332 105.099 857.161 106.462 858.31 107.584C859.691 108.931 862.091 107.077 860.707 105.726C858.277 103.353 858.303 100.132 859.512 97.2275C860.953 93.9532 863.569 91.2232 866.93 89.4847C871.067 87.2276 875.657 85.799 879.902 83.7348C883.967 81.8459 887.472 79.0877 890.12 75.6949C895.115 69.0923 896.473 60.5889 895.147 52.7672C893.711 44.303 888.778 36.6745 882.661 30.3163C876.003 23.3968 867.882 17.5827 859.6 12.3767C850.714 6.79056 840.927 2.10734 830.173 0.538723C820.85 -0.821024 810.799 0.290197 802.771 5.05664C795.277 9.5058 789.617 17.0338 789.211 25.3428C789.082 29.1224 790.057 32.8652 792.037 36.1859C794.017 39.5067 796.93 42.2855 800.476 44.2364C804.112 46.1396 808.311 46.9518 812.48 46.5583C816.938 46.2198 821.38 44.8935 825.879 45.1622C827.914 45.2397 829.866 45.9211 831.439 47.1032C833 48.2829 834.781 45.9149 833.234 44.7449Z" fill="#535173"/>
<path d="M770.409 299.145C770.429 299.037 770.451 298.929 770.477 298.822C770.663 298.022 771.021 297.265 771.53 296.593C772.039 295.92 772.689 295.347 773.442 294.906L786.436 287.25C787.954 286.357 789.798 286.052 791.562 286.4C793.327 286.747 794.869 287.721 795.849 289.105L835.932 345.878C836.91 347.264 837.246 348.949 836.865 350.562C836.484 352.175 835.418 353.583 833.9 354.478L820.906 362.134C819.388 363.026 817.544 363.332 815.78 362.984C814.015 362.636 812.473 361.663 811.493 360.278L771.41 303.506C770.494 302.217 770.137 300.662 770.409 299.145Z" fill="#535173"/>
</g>
<defs>
<clipPath id="clip0">
<rect width="955" height="432" fill="white"/>
</clipPath>
</defs>
</svg>
