<svg width="810" height="498" viewBox="0 0 810 498" fill="none" xmlns="http://www.w3.org/2000/svg">
<path d="M493.254 0H8.70448C6.39698 0.0029447 4.18497 0.781828 2.55331 2.16593C0.921659 3.55004 0.00347136 5.42645 0 7.38386V250.231C0.00347136 252.188 0.921659 254.065 2.55331 255.449C4.18497 256.833 6.39698 257.612 8.70448 257.615H493.254C495.561 257.612 497.773 256.833 499.405 255.449C501.037 254.065 501.955 252.188 501.958 250.231V7.38386C501.955 5.42645 501.037 3.55004 499.405 2.16593C497.773 0.781828 495.561 0.0029447 493.254 0ZM500.024 250.231C500.022 251.754 499.308 253.213 498.039 254.29C496.77 255.367 495.049 255.972 493.254 255.974H8.70448C6.90954 255.972 5.18867 255.367 3.91945 254.29C2.65024 253.213 1.93632 251.754 1.93433 250.231V7.38386C1.93632 5.86124 2.65024 4.40146 3.91945 3.32481C5.18867 2.24815 6.90954 1.64255 8.70448 1.64086H493.254C495.049 1.64255 496.77 2.24815 498.039 3.32481C499.308 4.40146 500.022 5.86124 500.024 7.38386V250.231Z" fill="#3F3D56"/>
<path d="M500.991 27.8946H0.967163V29.5354H500.991V27.8946Z" fill="#3F3D56"/>
<path d="M17.4089 18.4597C20.0797 18.4597 22.2448 16.6231 22.2448 14.3575C22.2448 12.092 20.0797 10.2554 17.4089 10.2554C14.7382 10.2554 12.5731 12.092 12.5731 14.3575C12.5731 16.6231 14.7382 18.4597 17.4089 18.4597Z" fill="#CCCCCC"/>
<path d="M31.9164 18.4597C34.5872 18.4597 36.7523 16.6231 36.7523 14.3575C36.7523 12.092 34.5872 10.2554 31.9164 10.2554C29.2457 10.2554 27.0806 12.092 27.0806 14.3575C27.0806 16.6231 29.2457 18.4597 31.9164 18.4597Z" fill="#CCCCCC"/>
<path d="M46.4239 18.4597C49.0947 18.4597 51.2597 16.6231 51.2597 14.3575C51.2597 12.092 49.0947 10.2554 46.4239 10.2554C43.7531 10.2554 41.5881 12.092 41.5881 14.3575C41.5881 16.6231 43.7531 18.4597 46.4239 18.4597Z" fill="#CCCCCC"/>
<path d="M368.006 355.656H133.952C131.773 355.654 129.683 354.919 128.142 353.611C126.601 352.304 125.734 350.531 125.731 348.682V126.346C125.734 124.497 126.601 122.725 128.142 121.417C129.683 120.11 131.773 119.375 133.952 119.372H368.006C370.186 119.375 372.275 120.11 373.816 121.417C375.358 122.725 376.225 124.497 376.227 126.346V348.682C376.225 350.531 375.358 352.304 373.816 353.611C372.275 354.919 370.186 355.654 368.006 355.656Z" fill="#536DFE"/>
<path d="M319.648 233.412H182.311C179.104 233.412 176.029 232.332 173.762 230.408C171.495 228.485 170.221 225.877 170.221 223.157C170.221 220.437 171.495 217.828 173.762 215.905C176.029 213.982 179.104 212.901 182.311 212.901H319.648C322.854 212.901 325.929 213.982 328.196 215.905C330.464 217.828 331.737 220.437 331.737 223.157C331.737 225.877 330.464 228.485 328.196 230.408C325.929 232.332 322.854 233.412 319.648 233.412Z" fill="white"/>
<path d="M319.648 271.562H182.311C179.104 271.562 176.029 270.482 173.762 268.558C171.495 266.635 170.221 264.027 170.221 261.307C170.221 258.587 171.495 255.978 173.762 254.055C176.029 252.132 179.104 251.051 182.311 251.051H319.648C322.854 251.051 325.929 252.132 328.196 254.055C330.464 255.978 331.737 258.587 331.737 261.307C331.737 264.027 330.464 266.635 328.196 268.558C325.929 270.482 322.854 271.562 319.648 271.562Z" fill="white"/>
<path d="M319.648 310.122H182.311C179.104 310.122 176.029 309.042 173.762 307.119C171.495 305.195 170.221 302.587 170.221 299.867C170.221 297.147 171.495 294.539 173.762 292.615C176.029 290.692 179.104 289.612 182.311 289.612H319.648C322.854 289.612 325.929 290.692 328.196 292.615C330.464 294.539 331.737 297.147 331.737 299.867C331.737 302.587 330.464 305.195 328.196 307.119C325.929 309.042 322.854 310.122 319.648 310.122Z" fill="white"/>
<path d="M277.576 182.956H224.382C221.176 182.956 218.101 181.875 215.834 179.952C213.566 178.029 212.293 175.42 212.293 172.7C212.293 169.98 213.566 167.372 215.834 165.449C218.101 163.525 221.176 162.445 224.382 162.445H277.576C280.783 162.445 283.858 163.525 286.125 165.449C288.392 167.372 289.666 169.98 289.666 172.7C289.666 175.42 288.392 178.029 286.125 179.952C283.858 181.875 280.783 182.956 277.576 182.956Z" fill="white"/>
<path d="M450.215 58.2505H51.7433C46.1347 58.2505 41.5881 62.1073 41.5881 66.865V66.865C41.5881 71.6227 46.1347 75.4795 51.7433 75.4795H450.215C455.824 75.4795 460.37 71.6227 460.37 66.865C460.37 62.1073 455.824 58.2505 450.215 58.2505Z" fill="#CCCCCC"/>
<path d="M605.809 390.406C607.036 389.888 608.114 389.149 608.967 388.239C609.821 387.33 610.428 386.273 610.748 385.142C611.068 384.012 611.091 382.836 610.817 381.697C610.543 380.558 609.978 379.484 609.161 378.551L631.002 276.017L610.621 275.79L595.454 377.182C593.696 378.449 592.547 380.22 592.225 382.157C591.904 384.095 592.431 386.066 593.707 387.696C594.984 389.326 596.921 390.502 599.151 391.002C601.382 391.501 603.751 391.289 605.809 390.406H605.809Z" fill="#FAEFCA"/>
<path d="M542.555 385.544L534.817 416.721L535.785 486.457H550.292L557.062 418.361L567.701 389.646L542.555 385.544Z" fill="#FAEFCA"/>
<path d="M590.913 385.544L583.176 416.721L584.143 486.457H598.65L605.42 418.361L616.059 389.646L590.913 385.544Z" fill="#FAEFCA"/>
<path d="M531.039 484.518L553.883 485.397L553.23 497.599L516.003 496.165C516.089 494.563 516.546 492.991 517.348 491.538C518.15 490.086 519.281 488.781 520.677 487.7C522.073 486.618 523.707 485.781 525.485 485.235C527.263 484.689 529.15 484.445 531.039 484.518Z" fill="#575081"/>
<path d="M579.397 484.518L602.241 485.397L601.588 497.599L564.361 496.165C564.447 494.563 564.904 492.991 565.706 491.538C566.508 490.086 567.639 488.781 569.035 487.7C570.432 486.618 572.065 485.781 573.843 485.235C575.621 484.689 577.508 484.445 579.397 484.518Z" fill="#575081"/>
<path d="M577.856 232.653C590.975 232.653 601.611 223.631 601.611 212.502C601.611 201.373 590.975 192.351 577.856 192.351C564.737 192.351 554.101 201.373 554.101 212.502C554.101 223.631 564.737 232.653 577.856 232.653Z" fill="#FAEFCA"/>
<path d="M630.352 262.342C622.492 251.88 596.34 225.811 557.545 247.302C557.545 247.302 566.734 312.527 544.489 347.805C544.489 347.805 595.749 360.932 623.796 348.625C623.796 348.625 614.125 293.657 623.796 282.991C627.021 279.583 629.633 275.788 631.546 271.73C632.218 270.193 632.46 268.546 632.252 266.917C632.045 265.288 631.394 263.722 630.352 262.342Z" fill="#CCCCCC"/>
<path d="M620.895 261.66L630.386 265.015C631.018 265.238 631.562 265.61 631.953 266.086C632.345 266.562 632.568 267.124 632.596 267.704L633.468 285.452L612.19 283.812L620.895 261.66Z" fill="#CCCCCC"/>
<path d="M548.358 346.164C548.358 346.164 527.08 379.802 530.949 410.978L560.931 415.08L582.208 371.597L577.372 415.901L608.322 416.721C608.322 416.721 628.632 352.727 621.862 346.984L548.358 346.164Z" fill="#575081"/>
<path d="M542.944 382.202C544.17 381.684 545.248 380.944 546.102 380.035C546.955 379.125 547.563 378.068 547.882 376.938C548.202 375.808 548.225 374.632 547.951 373.493C547.677 372.354 547.112 371.28 546.295 370.347L568.136 267.813L547.755 267.585L532.588 368.978C530.83 370.245 529.682 372.015 529.36 373.953C529.038 375.891 529.565 377.862 530.842 379.492C532.118 381.122 534.055 382.298 536.286 382.797C538.516 383.297 540.885 383.085 542.944 382.202H542.944Z" fill="#FAEFCA"/>
<path d="M566.734 247.713L558.029 246.892C558.029 246.892 550.292 245.251 547.39 254.276C544.489 263.301 544.489 281.35 544.489 281.35L571.569 280.53L566.734 247.713Z" fill="#CCCCCC"/>
<path d="M581.661 222.203C582.514 219.691 582.268 216.292 579.397 215.342C577.901 214.847 576.232 215.237 574.635 215.376C571.509 215.636 568.38 214.906 565.852 213.325C562.882 211.453 561.048 208.59 559.306 205.821L556.672 201.632C556.086 200.758 555.586 199.845 555.177 198.902C553.711 195.204 555.303 190.923 558.561 188.17C561.966 185.482 566.448 183.992 571.098 184C575.713 184.028 580.272 184.857 584.495 186.435C592.001 189.03 598.8 192.904 604.47 197.818C608.176 201.034 611.55 205.224 610.775 209.673C610.173 213.137 607.197 215.91 604.358 218.451L594.063 227.671C592.24 229.303 590.292 231.002 587.746 231.63C585.2 232.258 581.92 231.336 581.226 229.165C581.226 229.165 580.808 224.715 581.661 222.203Z" fill="#575081"/>
<path d="M700.478 497.042C700.477 497.26 700.375 497.468 700.194 497.622C700.012 497.776 699.767 497.862 699.511 497.863H420.967C420.711 497.863 420.465 497.776 420.283 497.623C420.102 497.469 420 497.26 420 497.042C420 496.825 420.102 496.616 420.283 496.462C420.465 496.308 420.711 496.222 420.967 496.222H699.511C699.767 496.223 700.012 496.309 700.194 496.463C700.375 496.617 700.477 496.825 700.478 497.042Z" fill="#3F3D56"/>
</svg>
