<svg width="874" height="543" viewBox="0 0 874 543" fill="none" xmlns="http://www.w3.org/2000/svg">
<path opacity="0.3" d="M518.351 425.494C605.021 425.494 675.281 357.774 675.281 274.237C675.281 190.701 605.021 122.981 518.351 122.981C431.68 122.981 361.42 190.701 361.42 274.237C361.42 357.774 431.68 425.494 518.351 425.494Z" fill="#6C63FF"/>
<path d="M453.904 81.8094L349.415 204.004L504.058 379.911L607.153 263.088L453.904 81.8094Z" fill="#6C63FF"/>
<path opacity="0.1" d="M453.904 81.8094L349.415 204.004L504.058 379.911L607.153 263.088L453.904 81.8094Z" fill="black"/>
<path d="M353.595 205.347C355.906 201.337 358.772 197.649 362.114 194.383L458.083 100.608C458.083 100.608 491.519 95.2372 498.485 111.351L375.886 208.033L353.595 205.347Z" fill="#F2F2F2"/>
<path d="M348.719 203.333L490.823 412.811C490.823 412.811 504.755 422.21 518.686 416.839L664.273 322.171L509.631 96.5801L370.313 201.319L348.719 203.333Z" fill="#6C63FF"/>
<path d="M492.258 129.271L403.087 191.031L404.405 192.798L493.575 131.038L492.258 129.271Z" fill="#3F3D56"/>
<path d="M401.905 214.146L400.021 215.347L517.048 385.884L518.932 384.683L401.905 214.146Z" fill="#3F3D56"/>
<path d="M625.977 322.624L531.263 389.791L532.602 391.545L627.316 324.377L625.977 322.624Z" fill="#3F3D56"/>
<path d="M509.164 132.215L507.312 133.457L628.518 301.308L630.371 300.065L509.164 132.215Z" fill="#3F3D56"/>
<path d="M471.725 99.2773L361.483 196.796L362.425 197.785L472.667 100.266L471.725 99.2773Z" fill="#3F3D56"/>
<path d="M480.908 100.113L365.692 198.151L366.614 199.158L481.831 101.12L480.908 100.113Z" fill="#3F3D56"/>
<path d="M488.116 102.067L368.51 198.159L369.403 199.191L489.008 103.099L488.116 102.067Z" fill="#3F3D56"/>
</svg>
