<svg width="448" height="334" viewBox="0 0 448 334" fill="none" xmlns="http://www.w3.org/2000/svg">
<g clip-path="url(#clip0)">
<path d="M342.999 330.223C337.264 324.179 333.78 314.632 334.694 305.338C335.607 296.044 341.266 287.499 348.606 285.526C355.947 283.552 364.314 289.015 366.544 297.957C367.771 280.718 369.185 262.757 376.535 248.076C383.19 234.783 394.717 225.271 407.209 223.57C419.702 221.868 432.855 228.295 440.646 240.591C448.437 252.886 450.344 270.762 444.888 284.878C440.868 295.277 433.462 303.017 425.703 309.313C400.629 329.487 370.557 337.69 341.019 332.415L342.999 330.223Z" fill="#F2F2F2"/>
<path d="M428.292 228.651C417.984 239.121 408.528 250.831 400.06 263.611C386.807 283.543 376.083 305.891 368.261 329.875C367.688 331.625 369.967 332.387 370.533 330.656C383.331 291.676 403.763 257.32 429.958 230.729C431.135 229.534 429.459 227.467 428.292 228.651Z" fill="white"/>
<path d="M144.218 328.581C152.096 320.28 156.881 307.167 155.627 294.401C154.372 281.635 146.599 269.9 136.517 267.189C126.435 264.478 114.942 271.982 111.88 284.264C110.195 260.586 108.253 235.916 98.1578 215.752C89.0169 197.494 73.1848 184.43 56.0264 182.093C38.8679 179.755 20.8022 188.583 10.1011 205.471C-0.599958 222.359 -3.22008 246.911 4.2747 266.3C9.79583 280.583 19.9677 291.213 30.6253 299.861C64.6267 327.45 106.805 338.957 146.939 331.592" fill="#F2F2F2"/>
<path d="M27.0689 189.072C41.2268 203.452 54.2151 219.535 65.8461 237.089C77.4789 254.624 87.7203 273.525 96.4265 293.527C101.293 304.746 105.664 316.289 109.522 328.103C110.308 330.506 107.179 331.553 106.401 329.176C99.5688 308.348 91.1161 288.405 81.1642 269.633C71.2605 250.929 59.9253 233.467 47.3176 217.492C40.1867 208.461 32.663 199.926 24.7805 191.926C23.1648 190.285 25.4666 187.445 27.0689 189.072L27.0689 189.072Z" fill="white"/>
<path d="M321.582 333.269H133.628V92.7887C133.628 41.6247 167.007 0 208.037 0H247.172C288.202 0 321.582 41.6247 321.582 92.7887V333.269Z" fill="#F2F2F2"/>
<path d="M282.446 333.27H133.628V92.7896C133.586 73.1848 138.565 54.0754 147.838 38.2437C148.18 37.6627 148.521 37.0893 148.872 36.5221C153.357 29.1863 158.695 22.7259 164.709 17.3539C165.048 17.0457 165.39 16.7428 165.736 16.4399C170.768 12.0974 176.211 8.54752 181.942 5.87101C182.282 5.71016 182.629 5.54899 182.975 5.39441C188.158 3.0879 193.531 1.50796 198.994 0.683747C199.333 0.626051 199.681 0.580903 200.028 0.535754C205.352 -0.174109 210.722 -0.174109 216.046 0.535754C216.393 0.580903 216.74 0.626045 217.083 0.684364C222.545 1.50863 227.916 3.08838 233.098 5.39444C233.445 5.54902 233.791 5.71018 234.132 5.87134C239.793 8.51409 245.172 12.011 250.151 16.2841C250.496 16.5804 250.843 16.8833 251.184 17.1862C254.555 20.1867 257.721 23.5295 260.65 27.1804C262.999 30.1088 265.188 33.2303 267.202 36.524C267.553 37.0893 267.894 37.6628 268.235 38.2428C277.508 54.0746 282.487 73.1844 282.446 92.7896V333.27Z" fill="#CCCCCC"/>
<path d="M270.345 225.711C274.895 225.711 278.584 221.111 278.584 215.437C278.584 209.763 274.895 205.163 270.345 205.163C265.794 205.163 262.106 209.763 262.106 215.437C262.106 221.111 265.794 225.711 270.345 225.711Z" fill="#6C63FF"/>
<path d="M306.184 326.066H299.871L296.868 295.701L306.185 295.701L306.184 326.066Z" fill="#FFB8B8"/>
<path d="M295.361 323.817H307.537V333.376H287.695C287.695 332.121 287.894 330.878 288.279 329.718C288.664 328.558 289.229 327.504 289.941 326.616C290.653 325.729 291.498 325.025 292.428 324.544C293.358 324.064 294.355 323.817 295.361 323.817Z" fill="#2F2E41"/>
<path d="M337.596 326.066H331.283L328.279 295.701L337.597 295.701L337.596 326.066Z" fill="#FFB8B8"/>
<path d="M326.773 323.817H338.948V333.376H319.107C319.107 332.121 319.305 330.878 319.691 329.718C320.076 328.558 320.641 327.504 321.352 326.616C322.064 325.729 322.909 325.025 323.839 324.544C324.77 324.064 325.766 323.817 326.773 323.817Z" fill="#2F2E41"/>
<path d="M274.515 217.472C274.06 216.638 273.758 215.689 273.63 214.694C273.502 213.698 273.55 212.679 273.771 211.709C273.993 210.739 274.382 209.842 274.912 209.08C275.441 208.318 276.099 207.71 276.837 207.299L298.298 133.539L308.858 140.725L284.354 211.213C284.826 212.806 284.812 214.559 284.317 216.14C283.821 217.722 282.877 219.021 281.664 219.793C280.451 220.564 279.053 220.754 277.736 220.326C276.418 219.899 275.272 218.883 274.515 217.472Z" fill="#FFB8B8"/>
<path d="M334.371 231.332C333.669 230.83 333.065 230.143 332.599 229.318C332.133 228.494 331.819 227.552 331.677 226.559C331.535 225.566 331.569 224.547 331.777 223.572C331.985 222.598 332.362 221.692 332.881 220.919L326.233 142.893L338.251 143.578L341.014 220.326C341.997 221.5 342.602 223.083 342.712 224.775C342.822 226.468 342.431 228.152 341.612 229.508C340.794 230.865 339.604 231.8 338.27 232.136C336.935 232.472 335.548 232.186 334.371 231.332Z" fill="#FFB8B8"/>
<path d="M315.199 119.876C322.184 119.876 327.846 112.815 327.846 104.105C327.846 95.3944 322.184 88.3333 315.199 88.3333C308.214 88.3333 302.552 95.3944 302.552 104.105C302.552 112.815 308.214 119.876 315.199 119.876Z" fill="#FFB8B8"/>
<path d="M334.29 213.587H296.16L296.206 213.217C296.275 212.664 303.002 157.711 298.04 139.733C297.542 137.966 297.586 136.032 298.163 134.304C298.74 132.575 299.809 131.173 301.166 130.368H301.166C308.257 126.204 321.87 121.076 333.36 133.521C335.051 135.382 336.371 137.709 337.216 140.316C338.062 142.924 338.409 145.741 338.231 148.544L334.29 213.587Z" fill="#6C63FF"/>
<path d="M303.484 165.832L286.317 161.489L294.364 137.711C294.846 135.408 296.04 133.437 297.685 132.231C299.33 131.024 301.292 130.681 303.14 131.276C304.988 131.871 306.572 133.355 307.543 135.404C308.514 137.453 308.794 139.898 308.322 142.204L303.484 165.832Z" fill="#6C63FF"/>
<path d="M325.47 173.896L324.438 144.395C323.655 138.849 326.201 133.607 330.116 132.75C334.033 131.896 337.857 135.743 338.643 141.329L342.522 168.894L325.47 173.896Z" fill="#6C63FF"/>
<path d="M333.022 210.055C339.157 239.193 339.826 276.239 338.171 316.649L329.932 315.365L314.999 238.309L306.76 316.649L297.491 316.007C294.721 273.607 292.025 237.207 296.461 213.265L333.022 210.055Z" fill="#2F2E41"/>
<path d="M323.533 116.293C321.173 119.428 316.792 117.745 316.484 113.463C316.46 113.131 316.462 112.797 316.489 112.465C316.648 110.568 317.527 108.846 317.316 106.844C317.269 106.345 317.12 105.87 316.884 105.464C315.004 102.324 310.59 106.868 308.815 104.026C307.727 102.283 309.006 99.539 308.171 97.5911C307.069 95.0203 303.805 96.2885 301.758 94.8806C299.481 93.3141 299.617 88.9567 301.116 86.3064C302.945 83.0741 306.15 81.3494 309.316 81.1008C312.482 80.8522 315.626 81.9194 318.581 83.3556C321.939 84.9875 325.269 87.2428 327.335 90.9248C329.848 95.4026 330.09 101.422 328.833 106.658C328.069 109.843 325.46 113.734 323.533 116.293Z" fill="#2F2E41"/>
<path d="M432.542 333.682H52.3629C52.2006 333.681 52.0451 333.601 51.9305 333.457C51.8159 333.314 51.7516 333.12 51.7516 332.917C51.7516 332.715 51.8159 332.521 51.9305 332.378C52.0451 332.234 52.2006 332.154 52.3629 332.153H432.542C432.704 332.154 432.86 332.234 432.974 332.378C433.089 332.521 433.153 332.715 433.153 332.917C433.153 333.12 433.089 333.314 432.974 333.457C432.86 333.601 432.704 333.681 432.542 333.682Z" fill="#3F3D56"/>
<path d="M241.508 263.597H174.566C173.684 263.603 172.836 263.173 172.209 262.4C171.581 261.628 171.225 260.577 171.218 259.478V73.1492C171.225 72.0498 171.581 70.9987 172.209 70.2264C172.836 69.4541 173.684 69.0237 174.566 69.0297H241.508C242.39 69.0237 243.237 69.4541 243.865 70.2264C244.492 70.9987 244.848 72.0498 244.855 73.1492V259.478C244.848 260.577 244.492 261.628 243.865 262.4C243.237 263.173 242.39 263.603 241.508 263.597Z" fill="white"/>
<path d="M244.855 129.32H171.218V130.604H244.855V129.32Z" fill="#CCCCCC"/>
<path d="M245.113 202.594H171.476V203.878H245.113V202.594Z" fill="#CCCCCC"/>
<path d="M195.421 69.0297H194.391V264.239H195.421V69.0297Z" fill="#CCCCCC"/>
<path d="M221.168 69.0297H220.138V264.239H221.168V69.0297Z" fill="#CCCCCC"/>
</g>
<defs>
<clipPath id="clip0">
<rect width="448" height="334" fill="white"/>
</clipPath>
</defs>
</svg>
