<svg width="375" height="429" viewBox="0 0 375 429" fill="none" xmlns="http://www.w3.org/2000/svg">
<g clip-path="url(#clip0)">
<path d="M125.48 291.447C126.262 293.579 127.164 295.668 128.184 297.705V297.71C129.009 299.368 129.907 300.983 130.877 302.557H243.966V302.774C244.991 301.132 245.934 299.44 246.795 297.699C247.817 295.665 248.719 293.578 249.499 291.447H125.48ZM128.331 297.639V296.628H246.664V297.639H128.331ZM137.146 311.054H237.833C239.898 308.694 241.781 306.192 243.466 303.568H131.513C133.198 306.192 135.081 308.694 137.146 311.054Z" fill="#3F3D56"/>
<path d="M251.266 285.775C250.861 287.357 250.387 288.909 249.856 290.436H125.123C124.592 288.909 124.118 287.357 123.713 285.775H251.266Z" fill="#3F3D56"/>
<path d="M251.345 285.477V284.764H123.634V285.477C123.187 283.718 122.817 281.927 122.525 280.104H252.454C252.165 281.924 251.795 283.715 251.345 285.477Z" fill="#3F3D56"/>
<path d="M122.293 273.422V274.432H253.091C252.991 276.005 252.833 277.556 252.607 279.093H122.372C122.151 277.566 121.988 276.02 121.893 274.453C121.799 273.128 121.757 271.794 121.757 270.444C121.757 269.534 121.778 268.63 121.814 267.73V267.72C121.904 265.804 122.076 263.914 122.33 262.048V262.043C122.551 260.481 122.826 258.938 123.156 257.413H251.613V256.493C252.044 258.323 252.388 260.183 252.644 262.074H122.561V263.085H252.775C252.949 264.495 253.072 265.917 253.143 267.351L253.159 267.745H122.43V268.756H253.196C253.217 269.317 253.222 269.878 253.222 270.444C253.222 271.445 253.196 272.436 253.149 273.422H122.293Z" fill="#3F3D56"/>
<path d="M251.592 256.402H123.387C123.761 254.825 124.194 253.272 124.686 251.742H250.272V251.686C250.777 253.233 251.213 254.805 251.592 256.402Z" fill="#3F3D56"/>
<path d="M249.956 250.731H125.023C125.675 248.81 126.42 246.933 127.258 245.1V246.065H247.721V245.105C248.557 246.935 249.302 248.81 249.956 250.731Z" fill="#3F3D56"/>
<path d="M247.695 245.054H127.279C128.005 243.467 128.799 241.914 129.662 240.394H245.175V240.141C246.09 241.738 246.93 243.376 247.695 245.054Z" fill="#3F3D56"/>
<path d="M244.733 239.383H130.24C135.968 229.637 144.286 221.528 154.345 215.886C164.403 210.243 175.84 207.27 187.487 207.27C199.133 207.27 210.571 210.243 220.629 215.886C230.687 221.528 239.006 229.637 244.733 239.383Z" fill="#3F3D56"/>
<path opacity="0.5" d="M123.634 285.477C123.655 285.578 123.681 285.677 123.713 285.775H123.634V285.477Z" fill="black"/>
<path opacity="0.5" d="M251.345 285.477V285.775H251.266C251.298 285.677 251.324 285.578 251.345 285.477Z" fill="black"/>
<path opacity="0.5" d="M253.222 273.422V274.432H253.091C253.101 274.306 253.112 274.18 253.117 274.053C253.128 273.841 253.138 273.634 253.149 273.422H253.222Z" fill="black"/>
<path opacity="0.5" d="M253.222 267.745V268.756H253.196C253.191 268.417 253.175 268.084 253.159 267.745H253.222Z" fill="black"/>
<path opacity="0.5" d="M251.613 256.402V256.493C251.608 256.463 251.597 256.433 251.592 256.402H251.613Z" fill="black"/>
<path opacity="0.5" d="M127.258 245.054H127.278C127.274 245.07 127.267 245.085 127.258 245.099V245.054Z" fill="black"/>
<path opacity="0.5" d="M247.72 245.054V245.104C247.712 245.087 247.704 245.07 247.695 245.054H247.72Z" fill="black"/>
<path opacity="0.5" d="M241.015 233.71H133.964V234.721H241.015V233.71Z" fill="black"/>
<path opacity="0.5" d="M236.856 228.037H138.391V229.048H236.856V228.037Z" fill="black"/>
<path opacity="0.5" d="M230.551 222.364H144.428V223.375H230.551V222.364Z" fill="black"/>
<path opacity="0.5" d="M222.635 216.689L151 216.823L151.002 217.834L222.637 217.7L222.635 216.689Z" fill="black"/>
<path d="M177.958 237.25H146.568V304.098H177.958V237.25Z" fill="#E6E6E6"/>
<path d="M160.928 243.544H162.257C164.215 243.544 166.094 244.292 167.478 245.623C168.863 246.954 169.641 248.759 169.641 250.641V260.69H153.543V250.641C153.543 248.759 154.321 246.954 155.706 245.623C157.091 244.292 158.969 243.544 160.928 243.544Z" fill="#3F3D56"/>
<path d="M218.343 236.665C220.478 236.665 222.525 237.48 224.035 238.931C225.544 240.381 226.392 242.349 226.392 244.401V257.035H210.295V244.401C210.295 242.349 211.143 240.38 212.652 238.931C214.161 237.48 216.209 236.665 218.343 236.665Z" fill="#E6E6E6"/>
<path d="M248.929 262.45C248.929 263.053 248.895 263.656 248.825 264.255H187.489V260.903H248.851C248.902 261.416 248.928 261.932 248.929 262.45Z" fill="#E6E6E6"/>
<path d="M196.291 251.135L196.888 250.249C196.711 249.78 196.506 249.32 196.276 248.873L195.89 249.172L196.196 248.719C195.905 248.168 195.676 247.821 195.676 247.821C194.941 248.975 194.403 250.233 194.08 251.55L194.846 252.686L193.999 252.029C193.968 252.252 193.953 252.477 193.952 252.702C193.952 254.973 194.724 256.814 195.676 256.814C196.628 256.814 197.399 254.973 197.399 252.702C197.381 251.98 197.249 251.264 197.005 250.581L196.291 251.135Z" fill="#6C63FF"/>
<path d="M200.512 253.103L201.585 252.882C201.805 252.43 201.999 251.966 202.165 251.493L201.672 251.443L202.221 251.33C202.421 250.743 202.514 250.342 202.514 250.342C201.146 250.659 199.839 251.183 198.643 251.894L198.348 253.218L198.232 252.177C198.047 252.315 197.87 252.463 197.704 252.622C196.033 254.228 195.224 256.054 195.897 256.701C196.571 257.348 198.471 256.571 200.142 254.965C200.661 254.442 201.093 253.846 201.424 253.197L200.512 253.103Z" fill="#6C63FF"/>
<path d="M200.904 261.891C198.415 262.044 195.703 261.882 192.819 261.891V255.543C195.501 255.904 198.222 255.904 200.904 255.543V261.891Z" fill="#E6E6E6"/>
<path d="M236.804 251.135L237.4 250.249C237.224 249.78 237.019 249.32 236.789 248.873L236.403 249.172L236.708 248.719C236.417 248.168 236.189 247.821 236.189 247.821C235.454 248.975 234.915 250.233 234.593 251.55L235.358 252.686L234.511 252.029C234.481 252.252 234.466 252.477 234.465 252.702C234.465 254.973 235.237 256.814 236.189 256.814C237.14 256.814 237.912 254.973 237.912 252.702C237.894 251.98 237.761 251.264 237.518 250.581L236.804 251.135Z" fill="#6C63FF"/>
<path d="M241.024 253.103L242.098 252.882C242.318 252.43 242.512 251.966 242.678 251.493L242.185 251.443L242.734 251.33C242.934 250.743 243.027 250.342 243.027 250.342C241.659 250.659 240.352 251.183 239.156 251.894L238.86 253.218L238.745 252.177C238.56 252.315 238.383 252.463 238.217 252.622C236.546 254.228 235.737 256.054 236.41 256.701C237.083 257.348 238.984 256.571 240.654 254.965C241.173 254.442 241.606 253.846 241.937 253.197L241.024 253.103Z" fill="#6C63FF"/>
<path d="M241.416 261.891C238.928 262.044 236.216 261.882 233.331 261.891V255.543C236.013 255.904 238.735 255.904 241.416 255.543V261.891Z" fill="#E6E6E6"/>
<path d="M150.324 275.232C152.102 275.232 153.543 274.066 153.543 272.627C153.543 271.189 152.102 270.023 150.324 270.023C148.546 270.023 147.104 271.189 147.104 272.627C147.104 274.066 148.546 275.232 150.324 275.232Z" fill="#3F3D56"/>
<path d="M340.125 350.88C306.459 397.091 250.65 427.308 187.5 427.308C123.592 427.308 67.2055 396.363 33.6764 349.212C62.5508 296.466 121.178 309.533 187.5 309.533C254.516 309.533 311.555 297.229 340.125 350.88Z" fill="#6C63FF"/>
<path d="M187.5 322.17C251.248 322.17 305.967 311.042 335.742 356.136C337.241 354.244 338.701 352.324 340.124 350.375C311.555 296.724 254.516 309.027 187.5 309.027C121.178 309.027 62.5508 295.961 33.6764 348.707C35.1038 350.714 36.5733 352.691 38.085 354.637C68.2553 310.343 124.393 322.17 187.5 322.17Z" fill="#3F3D56"/>
<path d="M187.5 428.571C141.791 428.537 97.6733 412.437 63.4614 383.304C29.2494 354.171 7.30601 314.018 1.76654 270.412C-3.77294 226.806 7.47413 182.759 33.3881 146.571C59.3021 110.383 98.0933 84.5547 142.451 73.9525C186.809 63.3503 233.67 68.7069 274.203 89.0129C314.736 109.319 346.141 143.172 362.5 184.192C378.859 225.212 379.042 270.566 363.014 311.707C346.987 352.847 315.856 386.933 275.488 407.541C248.39 421.361 218.178 428.582 187.5 428.571ZM187.5 69.6849C159.265 69.6972 131.404 75.8897 106.031 87.7926C80.6573 99.6955 58.4378 116.996 41.0582 138.382C23.6785 159.768 11.5952 184.677 5.72492 211.22C-0.14534 237.762 0.351666 265.242 7.17824 291.572C14.0048 317.903 26.9816 342.393 45.1241 363.186C63.2667 383.978 86.0983 400.526 111.887 411.574C137.676 422.623 165.744 427.881 193.962 426.95C222.18 426.019 249.807 418.924 274.747 406.202C300.694 392.881 323.017 373.88 339.91 350.733C357.911 325.945 369.086 297.177 372.391 267.115C375.696 237.053 371.024 206.676 358.81 178.819C344.598 146.446 320.762 118.822 290.289 99.4093C259.816 79.9961 224.06 69.6563 187.5 69.6849Z" fill="#3F3D56"/>
<path d="M187.5 427.56C163.014 427.566 138.766 422.935 116.143 413.931C93.5193 404.928 72.9632 391.729 55.6488 375.089C38.3344 358.448 24.6009 338.692 15.233 316.949C5.86508 295.207 1.04628 271.903 1.05188 248.37C1.05188 149.564 84.692 69.1794 187.5 69.1794C290.308 69.1794 373.948 149.564 373.948 248.37C374.032 285.102 362.293 320.959 340.339 351.027C323.132 374.643 300.258 393.928 273.654 407.25C247.05 420.572 217.499 427.538 187.5 427.56ZM187.5 70.6958C85.5621 70.6958 2.62972 150.4 2.62972 248.37C2.63269 286.17 15.1783 322.984 38.4432 353.462C61.708 383.939 94.4798 406.493 131.995 417.843C169.511 429.194 209.816 428.751 247.051 416.579C284.287 404.406 316.514 381.138 339.047 350.157C360.814 320.344 372.453 284.79 372.37 248.37C372.37 150.4 289.438 70.6958 187.5 70.6958Z" fill="#3F3D56"/>
<path d="M69.425 151.319C97.1651 151.319 119.653 129.707 119.653 103.046C119.653 76.386 97.1651 54.7735 69.425 54.7735C41.6849 54.7735 19.1971 76.386 19.1971 103.046C19.1971 129.707 41.6849 151.319 69.425 151.319Z" fill="#FF6584"/>
<path d="M281.587 165.29C329.079 165.29 367.579 128.289 367.579 82.6451C367.579 37.0015 329.079 0 281.587 0C234.095 0 195.595 37.0015 195.595 82.6451C195.595 128.289 234.095 165.29 281.587 165.29Z" fill="#6C63FF"/>
<path opacity="0.2" d="M345.553 27.4447C353.575 45.4772 354.663 65.6634 348.623 84.396C342.584 103.129 329.811 119.187 312.586 129.702C295.361 140.216 274.808 144.502 254.598 141.793C234.388 139.084 215.839 129.557 202.265 114.914C207.165 125.931 214.498 135.793 223.758 143.815C233.017 151.838 243.98 157.83 255.888 161.377C267.796 164.923 280.364 165.939 292.721 164.354C305.078 162.769 316.929 158.62 327.452 152.196C337.976 145.773 346.92 137.227 353.666 127.151C360.411 117.075 364.797 105.71 366.519 93.8433C368.241 81.9767 367.257 69.8922 363.637 58.4271C360.017 46.962 353.847 36.3904 345.553 27.4447Z" fill="black"/>
<path d="M281.823 82.6451H282.059L286.312 316.957H277.335L281.823 82.6451Z" fill="#3F3D56"/>
<path d="M297.481 210.274L295.5 206.657L281.285 213.85L283.266 217.466L297.481 210.274Z" fill="#3F3D56"/>
<path d="M267.73 306.809C267.73 306.809 268.093 299.495 275.539 300.346L267.73 306.809Z" fill="#3F3D56"/>
<path d="M265.626 299.849C267.684 299.849 269.352 298.246 269.352 296.268C269.352 294.29 267.684 292.686 265.626 292.686C263.568 292.686 261.9 294.29 261.9 296.268C261.9 298.246 263.568 299.849 265.626 299.849Z" fill="#6C63FF"/>
<path d="M266.072 302.299H265.02V309.375H266.072V302.299Z" fill="#3F3D56"/>
<path d="M316.643 320.457C316.643 320.457 317.006 313.143 324.452 313.993L316.643 320.457Z" fill="#3F3D56"/>
<path d="M314.539 313.497C316.597 313.497 318.266 311.894 318.266 309.916C318.266 307.938 316.597 306.334 314.539 306.334C312.481 306.334 310.813 307.938 310.813 309.916C310.813 311.894 312.481 313.497 314.539 313.497Z" fill="#6C63FF"/>
<path d="M314.985 315.946H313.933V323.023H314.985V315.946Z" fill="#3F3D56"/>
<path d="M55.2473 323.49C55.2473 323.49 55.6106 316.176 63.0562 317.026L55.2473 323.49Z" fill="#3F3D56"/>
<path d="M53.1436 316.53C55.2017 316.53 56.8701 314.926 56.8701 312.948C56.8701 310.97 55.2017 309.367 53.1436 309.367C51.0855 309.367 49.4171 310.97 49.4171 312.948C49.4171 314.926 51.0855 316.53 53.1436 316.53Z" fill="#6C63FF"/>
<path d="M53.5891 318.979H52.5372V326.056H53.5891V318.979Z" fill="#3F3D56"/>
<path d="M297.183 311.864C297.183 311.864 297.546 304.55 304.992 305.4L297.183 311.864Z" fill="#3F3D56"/>
<path d="M295.079 304.904C297.137 304.904 298.806 303.3 298.806 301.323C298.806 299.345 297.137 297.741 295.079 297.741C293.021 297.741 291.353 299.345 291.353 301.323C291.353 303.3 293.021 304.904 295.079 304.904Z" fill="#6C63FF"/>
<path d="M295.525 307.353H294.473V314.43H295.525V307.353Z" fill="#3F3D56"/>
<path d="M95.5567 105.905L100.398 102.183C96.6371 101.784 95.0916 103.756 94.4591 105.316C91.5207 104.143 88.3218 105.68 88.3218 105.68L98.0091 109.06C97.5204 107.806 96.6697 106.711 95.5567 105.905Z" fill="#3F3D56"/>
<path d="M169.189 143.815L174.031 140.094C170.27 139.695 168.724 141.666 168.092 143.227C165.153 142.054 161.954 143.591 161.954 143.591L171.642 146.971C171.153 145.716 170.302 144.622 169.189 143.815Z" fill="#3F3D56"/>
<path d="M89.7713 176.166L94.613 172.444C90.8517 172.045 89.3062 174.017 88.6737 175.577C85.7353 174.404 82.5363 175.941 82.5363 175.941L92.2237 179.321C91.735 178.067 90.8843 176.972 89.7713 176.166Z" fill="#3F3D56"/>
<path opacity="0.2" d="M252.717 271.117C252.729 279.249 250.986 287.295 247.6 294.748L138.534 242.219L130.24 238.261L141.48 237.669L238.89 232.554C248.163 242.906 252.717 256.382 252.717 271.117Z" fill="black"/>
<path d="M265.866 238.261H109.134V226.129L186.974 194.79L265.866 226.129V238.261Z" fill="#3F3D56"/>
</g>
<defs>
<clipPath id="clip0">
<rect width="375" height="428.571" fill="white"/>
</clipPath>
</defs>
</svg>
