<svg width="743" height="520" viewBox="0 0 743 520" fill="none" xmlns="http://www.w3.org/2000/svg">
<g clip-path="url(#clip0)">
<path d="M651.662 253.288H645.049V506.499H651.662V253.288Z" fill="#3F3D56"/>
<path d="M712.689 285.557C713.11 374.098 648.851 446.164 648.851 446.164C648.851 446.164 583.91 374.676 583.489 286.134C583.068 197.593 647.327 125.527 647.327 125.527C647.327 125.527 712.268 197.015 712.689 285.557Z" fill="#3F3D56"/>
<path d="M519.443 372.427H516.042V502.66H519.443V372.427Z" fill="#3F3D56"/>
<path d="M550.831 389.024C551.047 434.563 517.998 471.628 517.998 471.628C517.998 471.628 484.597 434.86 484.38 389.321C484.164 343.782 517.214 306.717 517.214 306.717C517.214 306.717 550.614 343.485 550.831 389.024Z" fill="#3F3D56"/>
<path d="M586.479 520C637.37 520 678.625 513.87 678.625 506.308C678.625 498.745 637.37 492.615 586.479 492.615C535.589 492.615 494.334 498.745 494.334 506.308C494.334 513.87 535.589 520 586.479 520Z" fill="#3F3D56"/>
<path d="M594.079 187.184C586.273 174.397 570.828 173.801 570.828 173.801C570.828 173.801 555.777 171.935 546.123 191.411C537.124 209.563 524.704 227.09 544.123 231.34L547.631 220.756L549.803 232.128C552.568 232.321 555.342 232.367 558.112 232.266C578.908 231.615 598.713 232.456 598.076 225.222C597.228 215.605 601.591 199.488 594.079 187.184Z" fill="#2F2E41"/>
<path d="M565.965 211.266C565.965 211.266 576.054 224.959 570.001 236.043C563.948 247.127 584.125 258.864 584.125 258.864L598.922 227.567C598.922 227.567 581.435 216.482 586.143 206.05L565.965 211.266Z" fill="#FBBEBE"/>
<path d="M572.691 217.134C582.349 217.134 590.179 209.544 590.179 200.182C590.179 190.819 582.349 183.229 572.691 183.229C563.033 183.229 555.204 190.819 555.204 200.182C555.204 209.544 563.033 217.134 572.691 217.134Z" fill="#FBBEBE"/>
<path d="M512.172 219.779L526.786 201.5C526.786 201.5 531.932 182.34 539.384 183.312C546.837 184.283 536.441 206.289 536.441 206.289L521.92 226.522L512.172 219.779Z" fill="#FBBEBE"/>
<path d="M586.143 462.948L590.851 487.073L600.94 489.681L598.25 460.992L586.143 462.948Z" fill="#FBBEBE"/>
<path d="M687.705 436.867L705.865 460.992L713.263 464.252L719.317 454.471L701.157 431.651L687.705 436.867Z" fill="#FBBEBE"/>
<path d="M582.108 248.431L570.888 234.113C570.888 234.113 549.151 237.999 547.133 239.955C545.115 241.911 552.514 277.773 552.514 277.773C552.514 277.773 553.859 287.553 559.912 292.769L565.965 296.681L615.737 286.901L617.609 265.432C618.29 257.613 617.28 249.741 614.641 242.323C612.002 234.904 607.794 228.101 602.285 222.35L593.625 223.498L582.108 248.431Z" fill="#575A89"/>
<path d="M549.823 241.259L546.46 239.955L530.99 238.651C530.99 238.651 525.61 237.347 526.955 234.739C528.3 232.131 529.645 231.479 526.955 230.827C524.265 230.175 523.592 229.523 524.265 227.567C524.937 225.611 528.973 221.698 528.973 221.698L517.539 212.57C517.539 212.57 516.92 212.994 515.919 213.78C510.243 218.235 492.28 234.311 505.432 250.388C520.902 269.296 539.062 280.381 553.859 276.469L549.823 241.259Z" fill="#575A89"/>
<path d="M564.62 293.421V302.55C564.62 302.55 558.567 313.634 560.585 324.066C562.602 334.499 563.275 339.715 563.275 339.715C563.495 348.588 565.081 357.378 567.983 365.796C572.691 378.837 557.222 464.252 576.727 465.556C596.232 466.86 606.994 468.164 613.047 461.644C619.1 455.123 602.958 342.975 602.958 342.975C602.958 342.975 658.111 454.471 669.545 449.907C680.979 445.343 709.9 434.911 706.537 429.042C703.174 423.174 618.428 292.769 618.428 292.769L615.737 286.901L564.62 293.421Z" fill="#2F2E41"/>
<path d="M596.905 482.508C596.905 482.508 586.143 481.856 586.143 485.117C586.143 488.377 580.762 499.461 580.762 499.461C580.762 499.461 576.727 512.502 587.488 511.198C598.25 509.894 604.976 498.157 604.976 498.157L602.285 485.769L596.905 482.508Z" fill="#2F2E41"/>
<path d="M709.227 459.688C709.227 459.688 699.811 453.819 700.484 457.732C701.156 461.644 701.829 472.076 706.537 472.728C711.245 473.38 725.37 477.292 726.042 478.596C726.715 479.9 742.857 485.117 742.857 476.64C742.857 468.164 732.768 461.644 732.768 461.644L721.334 453.167C721.334 453.167 713.935 452.515 712.59 457.08C711.245 461.644 709.227 459.688 709.227 459.688Z" fill="#2F2E41"/>
<path d="M572.718 184.692C578.885 184.692 583.885 179.845 583.885 173.865C583.885 167.886 578.885 163.039 572.718 163.039C566.55 163.039 561.55 167.886 561.55 173.865C561.55 179.845 566.55 184.692 572.718 184.692Z" fill="#2F2E41"/>
<path d="M560.375 171.016C560.375 168.343 561.396 165.764 563.241 163.776C565.086 161.788 567.624 160.533 570.367 160.251C569.976 160.211 569.584 160.191 569.191 160.19C566.23 160.19 563.389 161.331 561.295 163.361C559.2 165.392 558.024 168.145 558.024 171.016C558.024 173.888 559.2 176.641 561.295 178.672C563.389 180.702 566.23 181.843 569.191 181.843C569.584 181.842 569.976 181.822 570.367 181.782C567.624 181.5 565.086 180.245 563.241 178.257C561.396 176.269 560.375 173.69 560.375 171.016Z" fill="#2F2E41"/>
<path d="M590.627 185.952L575.369 178.203L554.297 181.373L549.937 200.039L560.79 199.634L563.822 192.777V199.522L568.829 199.335L571.736 188.417L573.552 200.039L591.355 199.687L590.627 185.952Z" fill="#2F2E41"/>
<path d="M589.714 294.932L566.182 295.549C566.182 295.549 546.103 299.336 547.229 291.479C548.356 283.623 567.945 286.371 567.945 286.371L589.387 283.2L589.714 294.932Z" fill="#FBBEBE"/>
<path d="M608.333 221.245C609.516 221.072 610.724 221.313 611.739 221.926C612.755 222.539 613.511 223.483 613.872 224.589C618.479 238.662 632.672 285.757 618.57 292.219C601.962 299.829 589.841 299.494 589.841 299.494L583.354 284.01L589.26 278.637L595.565 239.336L598.586 222.676L608.333 221.245Z" fill="#575A89"/>
<path opacity="0.4" d="M603.967 247.453L601.277 273.534L577.736 283.315L603.967 277.447V247.453Z" fill="black"/>
<path d="M477.012 161.352C484.594 163.3 491.154 167.919 495.409 174.307L497.609 177.61L497.72 177.747L536.317 188.695C537.024 188.896 537.622 189.358 537.982 189.982C538.342 190.605 538.435 191.341 538.241 192.031L535.244 202.681C535.147 203.028 534.979 203.353 534.752 203.637C534.524 203.921 534.241 204.159 533.918 204.336C533.595 204.513 533.24 204.627 532.872 204.671C532.503 204.715 532.13 204.687 531.773 204.59L493.166 194.129L493.165 194.131L489.288 195.552C482.148 198.168 474.317 198.426 467.01 196.286L477.012 161.352Z" fill="#3F3D56"/>
<path d="M517.659 192.241C518.024 191.029 516.422 189.509 514.079 188.845C511.737 188.18 509.541 188.623 509.176 189.834C508.81 191.045 510.413 192.566 512.755 193.23C515.098 193.895 517.293 193.452 517.659 192.241Z" fill="#575A89"/>
<path d="M515.687 193.357C516.582 193.357 517.308 192.654 517.308 191.787C517.308 190.919 516.582 190.216 515.687 190.216C514.792 190.216 514.067 190.919 514.067 191.787C514.067 192.654 514.792 193.357 515.687 193.357Z" fill="#3F3D56"/>
<path d="M480.239 181.526C483.457 171.904 482.428 162.96 477.939 161.549C473.451 160.138 467.203 166.794 463.984 176.416C460.766 186.039 461.795 194.983 466.284 196.394C470.772 197.805 477.02 191.148 480.239 181.526Z" fill="#6C63FF"/>
<path opacity="0.4" d="M479.039 181.186C482.14 171.914 481.297 163.273 477.216 161.393C477.462 161.423 477.704 161.475 477.939 161.549C482.428 162.96 483.457 171.904 480.239 181.526C477.02 191.148 470.773 197.805 466.284 196.394C466.121 196.342 465.962 196.28 465.808 196.209C470.223 196.754 475.99 190.301 479.039 181.186Z" fill="black"/>
<path d="M477.519 161.386L389.923 95.515C374.432 83.7828 359.568 71.2944 345.387 58.0983C320.417 35.0246 286.519 16.5768 247.053 6.755C151.167 -17.1076 75.2065 25.2037 40.6573 87.3311C-12.1375 182.269 -52.5978 336.326 181.494 254.321C232.69 236.387 284.512 234.481 323.805 225.034L466.085 196.595L477.519 161.386Z" fill="#6C63FF"/>
<path d="M214.536 50.5418C217.136 50.5418 219.244 48.4983 219.244 45.9776C219.244 43.4569 217.136 41.4134 214.536 41.4134C211.936 41.4134 209.828 43.4569 209.828 45.9776C209.828 48.4983 211.936 50.5418 214.536 50.5418Z" fill="#F2F2F2"/>
<path d="M305.995 56.5273H304.77V55.3393H304.53V56.5273H303.305V56.7595H304.53V57.9474H304.77V56.7595H305.995V56.5273Z" fill="#F2F2F2"/>
<path d="M429.08 155.635H427.854V154.447H427.615V155.635H426.389V155.867H427.615V157.055H427.854V155.867H429.08V155.635Z" fill="#F2F2F2"/>
<path d="M420.336 186.28H419.11V185.092H418.871V186.28H417.646V186.513H418.871V187.7H419.11V186.513H420.336V186.28Z" fill="#F2F2F2"/>
<path d="M44.3568 212.361H43.1313V211.173H42.8918V212.361H41.6664V212.593H42.8918V213.781H43.1313V212.593H44.3568V212.361Z" fill="#F2F2F2"/>
<path d="M98.1642 70.2199H96.9388V69.0319H96.6993V70.2199H95.4739V70.452H96.6993V71.64H96.9388V70.452H98.1642V70.2199Z" fill="#F2F2F2"/>
<path d="M307.34 191.497H306.115V190.309H305.876V191.497H304.65V191.729H305.876V192.917H306.115V191.729H307.34V191.497Z" fill="#F2F2F2"/>
<path d="M178.875 28.4902H177.65V27.3023H177.41V28.4902H176.185V28.7224H177.41V29.9104H177.65V28.7224H178.875V28.4902Z" fill="#F2F2F2"/>
<path d="M179.346 122.368L177.819 122.596C178.297 125.556 178.674 128.581 178.949 131.574L180.49 131.444C180.214 128.412 179.83 125.36 179.346 122.368Z" fill="#E6E6E6"/>
<path d="M175.169 104.541L173.69 104.978C174.584 107.847 175.385 110.788 176.064 113.715L177.577 113.383C176.884 110.422 176.071 107.449 175.169 104.541Z" fill="#E6E6E6"/>
<path d="M168.504 87.4451L167.098 88.071C168.39 90.803 169.6 93.6067 170.697 96.4104L172.143 95.8823C171.033 93.046 169.816 90.2031 168.504 87.4451Z" fill="#E6E6E6"/>
<path d="M159.491 71.4183L158.187 72.2203C159.848 74.7501 161.442 77.3713 162.922 79.9989L164.28 79.2817C162.787 76.6214 161.173 73.9742 159.491 71.4183Z" fill="#E6E6E6"/>
<path d="M148.286 56.7282L147.109 57.6997C149.113 59.9818 151.064 62.3682 152.907 64.7807L154.144 63.8874C152.288 61.4488 150.317 59.0363 148.286 56.7282Z" fill="#E6E6E6"/>
<path d="M135.117 43.6485L134.088 44.7635C136.401 46.7652 138.668 48.8712 140.827 51.0164L141.937 49.9667C139.751 47.7954 137.457 45.6698 135.117 43.6485Z" fill="#E6E6E6"/>
<path d="M120.239 32.4206L119.371 33.6595C121.941 35.3352 124.483 37.1217 126.924 38.967L127.88 37.7868C125.404 35.922 122.835 34.1159 120.239 32.4206Z" fill="#E6E6E6"/>
<path d="M106.699 24.6224V26.3177C108.307 27.1327 109.901 27.9869 111.461 28.8606L112.235 27.5631C110.419 26.5459 108.574 25.5657 106.699 24.6224Z" fill="#E6E6E6"/>
<path d="M179.45 140.824L180.997 140.796C181.025 142.31 181.027 143.831 181.003 145.319L179.457 145.295C179.48 143.825 179.478 142.32 179.45 140.824Z" fill="#E6E6E6"/>
<path d="M88.5463 250.817L87.0195 251.045C87.4971 254.005 87.8737 257.03 88.1495 260.023L89.6897 259.893C89.4139 256.861 89.0306 253.809 88.5463 250.817Z" fill="#E6E6E6"/>
<path d="M84.3695 232.99L82.8898 233.427C83.7843 236.296 84.5847 239.237 85.264 242.164L86.7773 241.832C86.0846 238.871 85.2708 235.898 84.3695 232.99Z" fill="#E6E6E6"/>
<path d="M77.7042 215.894L76.2985 216.52C77.5898 219.252 78.8005 222.056 79.8968 224.859L81.3429 224.331C80.2331 221.495 79.0157 218.652 77.7042 215.894Z" fill="#E6E6E6"/>
<path d="M68.6914 199.867L67.3866 200.669C69.0479 203.199 70.642 205.82 72.1217 208.448L73.4803 207.731C71.9872 205.07 70.3729 202.423 68.6914 199.867Z" fill="#E6E6E6"/>
<path d="M57.486 185.177L56.309 186.149C58.3133 188.431 60.2638 190.817 62.1067 193.23L63.3443 192.336C61.4879 189.898 59.5172 187.485 57.486 185.177Z" fill="#E6E6E6"/>
<path d="M44.3167 172.098L43.2876 173.212C45.6013 175.214 47.868 177.32 50.027 179.465L51.1368 178.416C48.9509 176.244 46.6573 174.119 44.3167 172.098Z" fill="#E6E6E6"/>
<path d="M29.4388 160.87L28.5712 162.108C31.1404 163.784 33.6829 165.571 36.1244 167.416L37.0795 166.236C34.6043 164.371 32.035 162.565 29.4388 160.87Z" fill="#E6E6E6"/>
<path d="M15.8995 153.071V154.767C17.507 155.582 19.1011 156.436 20.6615 157.31L21.435 156.012C19.619 154.995 17.7738 154.015 15.8995 153.071Z" fill="#E6E6E6"/>
<path d="M88.6505 269.273L90.1966 269.245C90.225 270.759 90.2271 272.28 90.2029 273.768L88.657 273.744C88.6805 272.274 88.6785 270.769 88.6505 269.273Z" fill="#E6E6E6"/>
<path d="M399.284 186.266L397.757 186.494C398.235 189.454 398.611 192.48 398.887 195.473L400.427 195.342C400.152 192.31 399.768 189.259 399.284 186.266Z" fill="#E6E6E6"/>
<path d="M395.107 168.44L393.627 168.877C394.522 171.745 395.322 174.686 396.002 177.614L397.515 177.281C396.822 174.321 396.009 171.348 395.107 168.44Z" fill="#E6E6E6"/>
<path d="M388.442 151.344L387.036 151.969C388.328 154.701 389.538 157.505 390.634 160.309L392.081 159.781C390.971 156.944 389.753 154.102 388.442 151.344Z" fill="#E6E6E6"/>
<path d="M379.429 135.317L378.124 136.119C379.786 138.649 381.38 141.27 382.859 143.897L384.218 143.18C382.725 140.52 381.111 137.873 379.429 135.317Z" fill="#E6E6E6"/>
<path d="M368.224 120.627L367.047 121.598C369.051 123.88 371.001 126.267 372.844 128.679L374.082 127.786C372.226 125.347 370.255 122.935 368.224 120.627Z" fill="#E6E6E6"/>
<path d="M355.054 107.547L354.025 108.662C356.339 110.664 358.606 112.77 360.765 114.915L361.874 113.865C359.688 111.694 357.395 109.568 355.054 107.547Z" fill="#E6E6E6"/>
<path d="M340.176 96.3191L339.309 97.558C341.878 99.2337 344.421 101.02 346.862 102.865L347.817 101.685C345.342 99.8205 342.773 98.0144 340.176 96.3191Z" fill="#E6E6E6"/>
<path d="M326.637 88.5209V90.2162C328.245 91.0312 329.839 91.8854 331.399 92.7591L332.173 91.4616C330.357 90.4444 328.512 89.4642 326.637 88.5209Z" fill="#E6E6E6"/>
<path d="M399.388 204.722L400.934 204.695C400.963 206.208 400.965 207.73 400.941 209.217L399.395 209.194C399.418 207.723 399.416 206.219 399.388 204.722Z" fill="#E6E6E6"/>
<path d="M100.415 130.337H99.2746V129.231H99.052V130.337H97.9113V130.552H99.052V131.658H99.2746V130.552H100.415V130.337Z" fill="#F2F2F2"/>
<path d="M87.2716 197.076H86.1315V195.97H85.9089V197.076H84.7682V197.292H85.9089V198.397H86.1315V197.292H87.2716V197.076Z" fill="#F2F2F2"/>
<path d="M48.7071 255.567H47.5664V254.462H47.3438V255.567H46.2037V255.783H47.3438V256.889H47.5664V255.783H48.7071V255.567Z" fill="#F2F2F2"/>
<path d="M155.987 181.382C144.961 165.494 140.173 146.3 142.492 127.283C144.812 108.266 154.084 90.6848 168.628 77.7268C183.172 64.7688 202.025 57.2925 221.768 56.6538C241.51 56.0151 260.835 62.2561 276.238 74.2452C291.641 86.2343 302.102 103.178 305.724 122.002C309.346 140.827 305.889 160.287 295.981 176.853C286.072 193.419 270.367 205.994 251.715 212.298C233.062 218.602 212.697 218.217 194.312 211.213C193.12 215.338 190.892 219.111 187.827 222.196C184.762 225.28 180.955 227.58 176.749 228.889C172.542 230.198 168.066 230.475 163.722 229.695C159.377 228.916 155.3 227.105 151.855 224.423C148.41 221.742 145.705 218.274 143.981 214.33C142.257 210.386 141.57 206.09 141.979 201.825C142.388 197.561 143.882 193.461 146.327 189.893C148.771 186.326 152.09 183.401 155.987 181.382Z" fill="#3F3D56"/>
<path d="M224.059 90.9164C242.996 90.9164 256.024 101.098 256.024 115.735C256.024 125.428 251.176 132.134 241.834 137.47C233.048 142.414 230.069 146.037 230.069 152.303C230.069 152.81 229.965 153.313 229.765 153.783C229.564 154.252 229.271 154.678 228.9 155.037C228.53 155.396 228.09 155.681 227.606 155.875C227.122 156.07 226.603 156.17 226.079 156.17H216.399C215.365 156.17 214.371 155.781 213.628 155.084C212.884 154.388 212.448 153.439 212.412 152.437L212.395 151.96C211.536 141.876 215.172 135.61 224.312 130.421C232.846 125.477 236.431 122.344 236.431 116.274C236.431 110.204 230.371 105.749 222.848 105.749C217.129 105.749 212.603 108.447 210.527 112.853C209.798 114.345 208.643 115.602 207.199 116.477C205.755 117.352 204.083 117.808 202.381 117.791C195.822 117.791 191.489 111.029 194.556 105.409C199.408 96.5182 209.647 90.9164 224.059 90.9164ZM210.779 174.821C210.779 169.191 215.627 164.736 221.585 164.736C227.594 164.736 232.442 169.142 232.442 174.821C232.442 180.499 227.594 184.905 221.585 184.905C215.576 184.905 210.779 180.499 210.779 174.821Z" fill="#6C63FF"/>
</g>
<defs>
<clipPath id="clip0">
<rect width="742.857" height="520" fill="white"/>
</clipPath>
</defs>
</svg>
